<svg id="visual" viewBox="0 0 2560 1440" width="2560" height="1440" xmlns="http://www.w3.org/2000/svg" xmlns:xlink="http://www.w3.org/1999/xlink" version="1.1"><rect x="0" y="0" width="2560" height="1440" fill="#fff"></rect><path d="M0 1145L61 1137.2C122 1129.3 244 1113.7 365.8 1112.7C487.7 1111.7 609.3 1125.3 731.2 1163.8C853 1202.3 975 1265.7 1097 1274.8C1219 1284 1341 1239 1463 1231.3C1585 1223.7 1707 1253.3 1828.8 1273.8C1950.7 1294.3 2072.3 1305.7 2194.2 1272.7C2316 1239.7 2438 1162.3 2499 1123.7L2560 1085L2560 1441L2499 1441C2438 1441 2316 1441 2194.2 1441C2072.3 1441 1950.7 1441 1828.8 1441C1707 1441 1585 1441 1463 1441C1341 1441 1219 1441 1097 1441C975 1441 853 1441 731.2 1441C609.3 1441 487.7 1441 365.8 1441C244 1441 122 1441 61 1441L0 1441Z" fill="#06b6d4" stroke-linecap="round" stroke-linejoin="miter"></path></svg>